<svg height="480pt" viewBox="0 0 480 480.00217" width="480pt" xmlns="http://www.w3.org/2000/svg" xmlns:xlink="http://www.w3.org/1999/xlink"><linearGradient id="a"><stop offset="0" stop-color="#e93e3a"/><stop offset=".35" stop-color="#ed683c"/><stop offset=".7" stop-color="#f3903f"/><stop offset="1" stop-color="#fdc70c"/></linearGradient><linearGradient id="b" gradientUnits="userSpaceOnUse" x1="240.001085" x2="240.001085" xlink:href="#a" y1="490.386175" y2="-15.805825"/><linearGradient id="c" gradientUnits="userSpaceOnUse" x1="368.001085" x2="368.001085" xlink:href="#a" y1="490.386175" y2="-15.805825"/><linearGradient id="d" gradientUnits="userSpaceOnUse" x1="336.001085" x2="336.001085" xlink:href="#a" y1="490.386175" y2="-15.805825"/><linearGradient id="e" gradientUnits="userSpaceOnUse" x1="424.001085" x2="424.001085" xlink:href="#a" y1="490.386175" y2="-15.805825"/><linearGradient id="f" gradientUnits="userSpaceOnUse" x1="376.001085" x2="376.001085" xlink:href="#a" y1="490.386175" y2="-15.805825"/><linearGradient id="g" gradientUnits="userSpaceOnUse" x1="104.001085" x2="104.001085" xlink:href="#a" y1="490.386175" y2="-15.805825"/><linearGradient id="h" gradientUnits="userSpaceOnUse" x1="40.001085" x2="40.001085" xlink:href="#a" y1="490.386175" y2="-15.805825"/><linearGradient id="i" gradientUnits="userSpaceOnUse" x1="440.001085" x2="440.001085" xlink:href="#a" y1="490.386175" y2="-15.805825"/><linearGradient id="j" gradientUnits="userSpaceOnUse" x1="200.001085" x2="200.001085" xlink:href="#a" y1="490.386175" y2="-15.805825"/><linearGradient id="k" gradientUnits="userSpaceOnUse" x1="280.001085" x2="280.001085" xlink:href="#a" y1="490.386175" y2="-15.805825"/><path d="m240 160.003906c-66.273438 0-120 53.722656-120 120 0 66.273438 53.726562 120 120 120s120-53.726562 120-120c-.074219-66.246094-53.753906-119.925781-120-120zm0 224c-57.4375 0-104-46.5625-104-104s46.5625-104 104-104 104 46.5625 104 104c-.066406 57.410156-46.589844 103.933594-104 104zm0 0" fill="url(#b)"/><path d="m480 160.003906c-.050781-41.265625-31.4375-75.742187-72.519531-79.65625-3.859375-27.691406-27.523438-48.308594-55.480469-48.34375-11.617188-.039062-22.953125 3.578125-32.40625 10.335938-21.011719-31.1875-58.308594-47.226563-95.398438-41.027344-37.089843 6.203125-67.140624 33.5-76.867187 69.824219-16.078125-9.023438-35.574219-9.535157-52.105469-1.363281-16.53125 8.171874-27.964844 23.972656-30.558594 42.230468h-.664062c-35.34375 0-64 28.652344-64 64 0 35.34375 28.65625 64 64 64h48v-16h-48c-26.507812 0-48-21.492187-48-48 0-26.511718 21.492188-48 48-48 2.308594.015625 4.609375.203125 6.890625.558594 2.347656.222656 4.679687-.574219 6.398437-2.191406 1.75-1.65625 2.730469-3.960938 2.710938-6.367188-.023438-15.941406 9.433594-30.371094 24.058594-36.710937 14.628906-6.335938 31.621094-3.375 43.238281 7.542969 2.195313 2.054687 5.359375 2.707031 8.191406 1.683593 2.828125-1.023437 4.84375-3.546875 5.21875-6.535156 4.339844-34.558594 30.554688-62.328125 64.804688-68.652344 34.253906-6.320312 68.65625 10.257813 85.050781 40.988281 1.199219 2.257813 3.410156 3.800782 5.9375 4.160157 2.53125.355469 5.082031-.515625 6.859375-2.351563 11.355469-11.640625 28.625-15.253906 43.691406-9.136718 15.066407 6.117187 24.929688 20.75 24.949219 37.011718 0 4.417969 3.582031 8 8 8 35.347656 0 64 28.652344 64 64 0 35.34375-28.652344 64-64 64h-32v16h32c44.164062-.050781 79.953125-35.839844 80-80zm0 0" fill="url(#b)"/><path d="m360 80.003906h16v16h-16zm0 0" fill="url(#c)"/><path d="m328 80.003906h16v16h-16zm0 0" fill="url(#d)"/><path d="m432 160.003906c0 17.671875-14.324219 32-32 32v16c26.5-.027344 47.976562-21.503906 48-48zm0 0" fill="url(#e)"/><path d="m368 192.003906h16v16h-16zm0 0" fill="url(#f)"/><path d="m96 400.003906h16v16h-16zm0 0" fill="url(#g)"/><path d="m96 368.003906h16v16h-16zm0 0" fill="url(#g)"/><path d="m48 336.003906h-16v16h-16v16h16v16h16v-16h16v-16h-16zm0 0" fill="url(#h)"/><path d="m32 304.003906h16v16h-16zm0 0" fill="url(#h)"/><path d="m32 272.003906h16v16h-16zm0 0" fill="url(#h)"/><path d="m368 384.003906h16v16h-16zm0 0" fill="url(#f)"/><path d="m368 352.003906h16v16h-16zm0 0" fill="url(#f)"/><path d="m368 320.003906h16v16h-16zm0 0" fill="url(#f)"/><path d="m96 336.003906h16v16h-16zm0 0" fill="url(#g)"/><g fill="url(#i)"><path d="m448 360.003906h-16v16h-16v16h16v16h16v-16h16v-16h-16zm0 0"/><path d="m432 328.003906h16v16h-16zm0 0"/><path d="m432 296.003906h16v16h-16zm0 0"/><path d="m432 264.003906h16v16h-16zm0 0"/></g><path d="m192 408.003906h16v32h-16zm0 0" fill="url(#j)"/><path d="m192 456.003906h16v16h-16zm0 0" fill="url(#j)"/><path d="m272 416.003906h16v32h-16zm0 0" fill="url(#k)"/><path d="m272 464.003906h16v16h-16zm0 0" fill="url(#k)"/><path d="m296 288.003906h-24v-80c0-4.421875-3.582031-8-8-8h-48c-4.417969 0-8 3.578125-8 8v80h-24c-3.234375 0-6.148438 1.949219-7.386719 4.9375-1.238281 2.988282-.554687 6.429688 1.730469 8.714844l56 56c3.125 3.125 8.1875 3.125 11.3125 0l56-56c2.289062-2.285156 2.972656-5.726562 1.734375-8.714844-1.238281-2.988281-4.15625-4.9375-7.390625-4.9375zm-56 52.6875-36.6875-36.6875h12.6875c4.417969 0 8-3.582031 8-8v-80h32v80c0 4.417969 3.582031 8 8 8h12.6875zm0 0" fill="url(#b)"/><path d="m104 432.003906c-13.253906 0-24 10.742188-24 24 0 13.253906 10.746094 24 24 24 13.257812 0 24-10.746094 24-24 0-13.257812-10.742188-24-24-24zm0 32c-4.417969 0-8-3.582031-8-8 0-4.421875 3.582031-8 8-8s8 3.578125 8 8c0 4.417969-3.582031 8-8 8zm0 0" fill="url(#g)"/><path d="m376 416.003906c-13.253906 0-24 10.742188-24 24 0 13.253906 10.746094 24 24 24 13.257812 0 24-10.746094 24-24 0-13.257812-10.742188-24-24-24zm0 32c-4.417969 0-8-3.582031-8-8 0-4.421875 3.582031-8 8-8s8 3.578125 8 8c0 4.417969-3.582031 8-8 8zm0 0" fill="url(#f)"/></svg>